<svg width="40" height="40" viewBox="0 0 40 40" fill="none" xmlns="http://www.w3.org/2000/svg">
<g clip-path="url(#clip0)">
<path d="M11.8683 36.9006H7.62061V39.0335H11.8683V36.9006Z" fill="#51586B"/>
<path d="M32.3792 36.9006H28.1315V39.0335H32.3792V36.9006Z" fill="#51586B"/>
<path d="M5.14566 36.9006H34.8543L37.0407 30.5614L33.4218 26.1254L2.36987 27.5262L5.14566 36.9006Z" fill="#025589"/>
<path d="M20 28.0697V17.3853C20 16.1572 19.0018 15.159 17.7737 15.159H7.37182C6.13721 15.159 5.14557 16.1572 5.14557 17.3853V28.0696V29.394H19.9999V28.0697H20Z" fill="#006AB9"/>
<path d="M34.8542 28.0697V17.3853C34.8542 16.1572 33.856 15.159 32.628 15.159H22.2261C20.9915 15.159 19.9998 16.1572 19.9998 17.3853V28.0696V29.394H34.8542L34.8542 28.0697Z" fill="#006AB9"/>
<path d="M38.2427 36.9006H34.8542V22.8851C34.8542 22.2858 35.4721 21.8857 36.0189 22.1309L38.9174 23.4303C39.2397 23.5748 39.4346 23.9082 39.4024 24.26L38.2427 36.9006Z" fill="#025589"/>
<path d="M1.75722 36.9006H5.14566V22.8851C5.14566 22.2858 4.52785 21.8857 3.98097 22.1309L1.08253 23.4303C0.760185 23.5748 0.565263 23.9082 0.597529 24.26L1.75722 36.9006Z" fill="#025589"/>
<path d="M34.8541 29.3941H5.14563V34.3003H34.8541V29.3941Z" fill="#008CC9"/>
<path d="M37.6546 2.33914H23.9659V11.8837H37.6546V2.33914Z" fill="#F9C900"/>
<path d="M27.3513 2.33914H23.9659V11.8837H27.3513V2.33914Z" fill="#D3AB02"/>
<path d="M39.1605 22.8882L36.2621 21.5888C36.0021 21.4722 35.7196 21.4385 35.4484 21.4837V17.3854C35.4484 15.8278 34.1857 14.5652 32.6282 14.5652H31.4049V12.4778H37.655C37.983 12.4778 38.249 12.2118 38.249 11.8837V2.33915C38.249 2.01111 37.983 1.74509 37.655 1.74509H31.4049V0.991494C31.4049 0.666181 31.1543 0.382509 30.8292 0.372821C30.4927 0.362665 30.2168 0.632353 30.2168 0.966651V1.74509H23.9662C23.6381 1.74509 23.3721 2.01111 23.3721 2.33915V11.8835C23.3721 12.2116 23.6381 12.4776 23.9662 12.4776H30.2168V14.565H22.2262C21.322 14.565 20.5164 14.9932 19.9999 15.6569C19.4835 14.9932 18.6779 14.565 17.7737 14.565H10.8925C10.5644 14.565 10.2984 14.8311 10.2984 15.1591C10.2984 15.4872 10.5644 15.7532 10.8925 15.7532H17.7737C18.6751 15.7532 19.4058 16.4839 19.4058 17.3853V28.8001H5.73971V22.8851V17.3852C5.73971 16.4838 6.47041 15.7531 7.37182 15.7531H8.14768C8.47573 15.7531 8.74174 15.4871 8.74174 15.159C8.74174 14.831 8.47573 14.565 8.14768 14.565H7.3719C5.81431 14.565 4.55173 15.8276 4.55173 17.3851V21.4833C4.28056 21.4382 3.99806 21.4719 3.73806 21.5886L0.839691 22.888C0.285627 23.1362 -0.0493741 23.7094 0.00609478 24.3141L1.16563 36.9549C1.19368 37.2606 1.45016 37.4945 1.75727 37.4945H5.14572H7.02682V39.0335C7.02682 39.3615 7.29283 39.6275 7.62088 39.6275H11.8686C12.1967 39.6275 12.4627 39.3615 12.4627 39.0335V37.4945H27.5374V39.0335C27.5374 39.3615 27.8034 39.6275 28.1315 39.6275H32.3792C32.7073 39.6275 32.9733 39.3615 32.9733 39.0335V37.4945H34.8544H38.2428C38.5499 37.4945 38.8064 37.2606 38.8345 36.9549L39.9942 24.3142C40.0495 23.7096 39.7145 23.1365 39.1605 22.8882ZM24.5602 2.93322H30.8031C30.8057 2.93322 30.8082 2.93361 30.8108 2.93361C30.8134 2.93361 30.8159 2.93322 30.8184 2.93322H37.0608V11.2895H24.5603V2.93322H24.5602ZM20.594 17.3853C20.594 16.4854 21.3262 15.7532 22.2262 15.7532H30.8063C30.8078 15.7532 30.8093 15.7534 30.8109 15.7534C30.8124 15.7534 30.8139 15.7532 30.8155 15.7532H32.6282C33.5281 15.7532 34.2603 16.4853 34.2603 17.3853V28.8001H20.594V17.3853ZM20 29.9882H34.2603V33.7063H26.3802C26.0522 33.7063 25.7862 33.9724 25.7862 34.3004C25.7862 34.6284 26.0522 34.8945 26.3802 34.8945H34.2603V36.3066H32.3792H28.1314H11.8686H7.6208H5.73971V34.8945H23.6355C23.9635 34.8945 24.2295 34.6284 24.2295 34.3004C24.2295 33.9724 23.9635 33.7063 23.6355 33.7063H5.73971V29.9882H20ZM1.18907 24.2058C1.17993 24.1069 1.23477 24.013 1.32555 23.9724L4.224 22.673C4.32462 22.628 4.40587 22.6645 4.44548 22.6901C4.48509 22.7156 4.55165 22.7751 4.55165 22.8851V36.3066H2.29923L1.18907 24.2058ZM11.2745 38.4395H8.21487V37.4946H11.2745V38.4395ZM31.7851 38.4395H28.7255V37.4946H31.7851V38.4395ZM38.8109 24.2058L37.7007 36.3065H35.4484V22.8851C35.4484 22.7751 35.5149 22.7155 35.5546 22.69C35.5942 22.6645 35.6757 22.6279 35.776 22.673L38.6745 23.9723C38.7652 24.013 38.82 24.1069 38.8109 24.2058Z" fill="black"/>
<path d="M24.9411 19.2169C24.7489 18.7368 24.0384 18.7413 23.8441 19.2169C23.7464 19.4559 23.8158 19.7399 24.016 19.9036C24.208 20.0606 24.4839 20.0808 24.6969 19.9547C24.9477 19.8061 25.0521 19.4856 24.9411 19.2169Z" fill="black"/>
<path d="M31.0103 19.2169C30.8124 18.7481 30.1252 18.7348 29.9184 19.2037C29.8134 19.4418 29.8785 19.7301 30.0777 19.8982C30.2617 20.0533 30.529 20.0817 30.7413 19.9683C31.0106 19.8243 31.1202 19.4981 31.0103 19.2169Z" fill="black"/>
<path d="M24.9412 24.8818C24.7513 24.3968 24.0406 24.409 23.8446 24.8816C23.7498 25.11 23.8099 25.3829 23.9941 25.5489C24.1832 25.7193 24.4648 25.7493 24.686 25.6248C24.9425 25.4807 25.0561 25.1536 24.9412 24.8818Z" fill="black"/>
<path d="M31.0101 24.8818C30.9197 24.6629 30.6988 24.5143 30.4613 24.5143C30.2124 24.5143 29.9866 24.676 29.9024 24.9089C29.8183 25.1415 29.8929 25.4114 30.0844 25.5679C30.2882 25.7343 30.5844 25.7456 30.8005 25.596C31.0284 25.4382 31.1124 25.1377 31.0101 24.8818Z" fill="black"/>
<path d="M8.99032 19.6716C9.19735 20.1625 9.91618 20.1446 10.0979 19.6446C10.187 19.3995 10.0974 19.1128 9.88493 18.9619C9.6936 18.826 9.43532 18.8153 9.2336 18.9353C8.98516 19.0832 8.87758 19.4043 8.99032 19.6716Z" fill="black"/>
<path d="M16.1895 19.3286C16.0847 18.8238 15.4011 18.6813 15.1131 19.1147C14.9716 19.3277 14.9837 19.6107 15.1406 19.8122C15.2984 20.0149 15.5816 20.091 15.8204 19.9985C16.0847 19.8961 16.2478 19.6083 16.1895 19.3286Z" fill="black"/>
<path d="M8.99029 25.3358C9.08974 25.5715 9.33185 25.7222 9.58834 25.7004C9.8342 25.6796 10.0444 25.5047 10.1109 25.2672C10.2524 24.7629 9.68795 24.3349 9.23857 24.5967C8.98685 24.7433 8.87662 25.0661 8.99029 25.3358Z" fill="black"/>
<path d="M16.1555 24.8818C16.061 24.6532 15.8255 24.5027 15.5779 24.5154C15.3401 24.5275 15.1284 24.685 15.0479 24.9088C14.8636 25.421 15.4395 25.8934 15.9071 25.6209C16.1585 25.4745 16.2693 25.1509 16.1555 24.8818Z" fill="black"/>
</g>
<defs>
<clipPath id="clip0">
<rect width="40" height="40" fill="white"/>
</clipPath>
</defs>
</svg>
